<svg xmlns="http://www.w3.org/2000/svg" xmlns:xlink="http://www.w3.org/1999/xlink" width="500" viewBox="0 0 375 374.999991" height="500" preserveAspectRatio="xMidYMid meet"><rect x="-37.5" width="450" fill="#ffffff" y="-37.499999" height="449.999989" fill-opacity="1"></rect><rect x="-37.5" width="450" fill="#ffffff" y="-37.499999" height="449.999989" fill-opacity="1"></rect><rect x="-37.5" width="450" fill="#e4d0d0" y="-37.499999" height="449.999989" fill-opacity="1"></rect><path fill="#961818" d="M 375 187.5 C 375 190.570312 374.925781 193.636719 374.773438 196.699219 C 374.625 199.765625 374.398438 202.824219 374.097656 205.878906 C 373.796875 208.933594 373.421875 211.976562 372.96875 215.011719 C 372.519531 218.046875 371.996094 221.070312 371.398438 224.078125 C 370.796875 227.089844 370.125 230.082031 369.378906 233.058594 C 368.636719 236.035156 367.816406 238.992188 366.925781 241.929688 C 366.035156 244.863281 365.074219 247.777344 364.039062 250.667969 C 363.003906 253.554688 361.902344 256.417969 360.726562 259.253906 C 359.554688 262.089844 358.308594 264.890625 356.996094 267.667969 C 355.6875 270.441406 354.308594 273.179688 352.859375 275.886719 C 351.414062 278.59375 349.902344 281.261719 348.324219 283.894531 C 346.746094 286.527344 345.105469 289.117188 343.402344 291.667969 C 341.695312 294.222656 339.929688 296.730469 338.101562 299.195312 C 336.273438 301.660156 334.386719 304.078125 332.4375 306.449219 C 330.492188 308.820312 328.488281 311.144531 326.429688 313.417969 C 324.367188 315.691406 322.253906 317.914062 320.082031 320.082031 C 317.914062 322.253906 315.691406 324.367188 313.417969 326.429688 C 311.144531 328.488281 308.820312 330.492188 306.449219 332.4375 C 304.078125 334.386719 301.660156 336.273438 299.195312 338.101562 C 296.730469 339.929688 294.222656 341.695312 291.667969 343.402344 C 289.117188 345.105469 286.527344 346.746094 283.894531 348.324219 C 281.261719 349.902344 278.59375 351.414062 275.886719 352.859375 C 273.179688 354.308594 270.441406 355.6875 267.667969 356.996094 C 264.890625 358.308594 262.089844 359.554688 259.253906 360.726562 C 256.417969 361.902344 253.554688 363.003906 250.667969 364.039062 C 247.777344 365.074219 244.863281 366.035156 241.929688 366.925781 C 238.992188 367.816406 236.035156 368.636719 233.058594 369.378906 C 230.082031 370.125 227.089844 370.796875 224.078125 371.398438 C 221.070312 371.996094 218.046875 372.519531 215.011719 372.96875 C 211.976562 373.421875 208.933594 373.796875 205.878906 374.097656 C 202.824219 374.398438 199.765625 374.625 196.699219 374.773438 C 193.636719 374.925781 190.570312 375 187.5 375 C 184.429688 375 181.363281 374.925781 178.300781 374.773438 C 175.234375 374.625 172.175781 374.398438 169.121094 374.097656 C 166.066406 373.796875 163.023438 373.421875 159.988281 372.96875 C 156.953125 372.519531 153.929688 371.996094 150.921875 371.398438 C 147.910156 370.796875 144.917969 370.125 141.941406 369.378906 C 138.964844 368.636719 136.007812 367.816406 133.070312 366.925781 C 130.136719 366.035156 127.222656 365.074219 124.332031 364.039062 C 121.445312 363.003906 118.582031 361.902344 115.746094 360.726562 C 112.910156 359.554688 110.105469 358.308594 107.332031 356.996094 C 104.558594 355.6875 101.820312 354.308594 99.113281 352.859375 C 96.40625 351.414062 93.738281 349.902344 91.105469 348.324219 C 88.472656 346.746094 85.882812 345.105469 83.332031 343.402344 C 80.777344 341.695312 78.269531 339.929688 75.804688 338.101562 C 73.339844 336.273438 70.921875 334.386719 68.550781 332.4375 C 66.179688 330.492188 63.855469 328.488281 61.582031 326.429688 C 59.308594 324.367188 57.085938 322.253906 54.917969 320.082031 C 52.746094 317.914062 50.632812 315.691406 48.570312 313.417969 C 46.511719 311.144531 44.507812 308.820312 42.558594 306.449219 C 40.613281 304.078125 38.726562 301.660156 36.898438 299.195312 C 35.070312 296.730469 33.304688 294.222656 31.597656 291.667969 C 29.894531 289.117188 28.253906 286.527344 26.675781 283.894531 C 25.097656 281.261719 23.585938 278.59375 22.140625 275.886719 C 20.691406 273.179688 19.3125 270.441406 18.003906 267.667969 C 16.691406 264.890625 15.445312 262.089844 14.273438 259.253906 C 13.097656 256.417969 11.996094 253.554688 10.960938 250.667969 C 9.925781 247.777344 8.964844 244.863281 8.074219 241.929688 C 7.183594 238.992188 6.363281 236.035156 5.621094 233.058594 C 4.875 230.082031 4.203125 227.089844 3.601562 224.078125 C 3.003906 221.070312 2.480469 218.046875 2.03125 215.011719 C 1.578125 211.976562 1.203125 208.933594 0.902344 205.878906 C 0.601562 202.824219 0.375 199.765625 0.226562 196.699219 C 0.0742188 193.636719 0 190.570312 0 187.5 C 0 184.429688 0.0742188 181.363281 0.226562 178.300781 C 0.375 175.234375 0.601562 172.175781 0.902344 169.121094 C 1.203125 166.066406 1.578125 163.023438 2.03125 159.988281 C 2.480469 156.953125 3.003906 153.929688 3.601562 150.921875 C 4.203125 147.910156 4.875 144.917969 5.621094 141.941406 C 6.363281 138.964844 7.183594 136.007812 8.074219 133.070312 C 8.964844 130.136719 9.925781 127.222656 10.960938 124.332031 C 11.996094 121.445312 13.097656 118.582031 14.273438 115.746094 C 15.445312 112.910156 16.691406 110.105469 18.003906 107.332031 C 19.3125 104.558594 20.691406 101.820312 22.140625 99.113281 C 23.585938 96.40625 25.097656 93.738281 26.675781 91.105469 C 28.253906 88.472656 29.894531 85.882812 31.597656 83.332031 C 33.304688 80.777344 35.070312 78.269531 36.898438 75.804688 C 38.726562 73.339844 40.613281 70.921875 42.558594 68.550781 C 44.507812 66.179688 46.511719 63.855469 48.570312 61.582031 C 50.632812 59.308594 52.746094 57.085938 54.917969 54.917969 C 57.085938 52.746094 59.308594 50.632812 61.582031 48.570312 C 63.855469 46.511719 66.179688 44.507812 68.550781 42.558594 C 70.921875 40.613281 73.339844 38.726562 75.804688 36.898438 C 78.269531 35.070312 80.777344 33.304688 83.332031 31.597656 C 85.882812 29.894531 88.472656 28.253906 91.105469 26.675781 C 93.738281 25.097656 96.40625 23.585938 99.113281 22.140625 C 101.820312 20.691406 104.558594 19.3125 107.332031 18.003906 C 110.105469 16.691406 112.910156 15.445312 115.746094 14.273438 C 118.582031 13.097656 121.445312 11.996094 124.332031 10.960938 C 127.222656 9.925781 130.136719 8.964844 133.070312 8.074219 C 136.007812 7.183594 138.964844 6.363281 141.941406 5.617188 C 144.917969 4.875 147.910156 4.203125 150.921875 3.601562 C 153.929688 3.003906 156.953125 2.480469 159.988281 2.03125 C 163.023438 1.578125 166.066406 1.203125 169.121094 0.902344 C 172.175781 0.601562 175.234375 0.375 178.300781 0.226562 C 181.363281 0.0742188 184.429688 0 187.5 0 C 190.570312 0 193.636719 0.0742188 196.699219 0.226562 C 199.765625 0.375 202.824219 0.601562 205.878906 0.902344 C 208.933594 1.203125 211.976562 1.578125 215.011719 2.03125 C 218.046875 2.480469 221.070312 3.003906 224.078125 3.601562 C 227.089844 4.203125 230.082031 4.875 233.058594 5.617188 C 236.035156 6.363281 238.992188 7.183594 241.929688 8.074219 C 244.863281 8.964844 247.777344 9.925781 250.667969 10.960938 C 253.554688 11.996094 256.417969 13.097656 259.253906 14.273438 C 262.089844 15.445312 264.890625 16.691406 267.667969 18.003906 C 270.441406 19.3125 273.179688 20.691406 275.886719 22.140625 C 278.59375 23.585938 281.261719 25.097656 283.894531 26.675781 C 286.527344 28.253906 289.117188 29.894531 291.667969 31.597656 C 294.222656 33.304688 296.730469 35.070312 299.195312 36.898438 C 301.660156 38.726562 304.078125 40.613281 306.449219 42.558594 C 308.820312 44.507812 311.144531 46.511719 313.417969 48.570312 C 315.691406 50.632812 317.914062 52.746094 320.082031 54.917969 C 322.253906 57.085938 324.367188 59.308594 326.429688 61.582031 C 328.488281 63.855469 330.492188 66.179688 332.4375 68.550781 C 334.386719 70.921875 336.273438 73.339844 338.101562 75.804688 C 339.929688 78.269531 341.695312 80.777344 343.402344 83.332031 C 345.105469 85.882812 346.746094 88.472656 348.324219 91.105469 C 349.902344 93.738281 351.414062 96.40625 352.859375 99.113281 C 354.308594 101.820312 355.6875 104.558594 356.996094 107.332031 C 358.308594 110.105469 359.554688 112.910156 360.726562 115.746094 C 361.902344 118.582031 363.003906 121.445312 364.039062 124.332031 C 365.074219 127.222656 366.035156 130.136719 366.925781 133.070312 C 367.816406 136.007812 368.636719 138.964844 369.378906 141.941406 C 370.125 144.917969 370.796875 147.910156 371.398438 150.921875 C 371.996094 153.929688 372.519531 156.953125 372.96875 159.988281 C 373.421875 163.023438 373.796875 166.066406 374.097656 169.121094 C 374.398438 172.175781 374.625 175.234375 374.773438 178.300781 C 374.925781 181.363281 375 184.429688 375 187.5 Z M 375 187.5 " fill-opacity="1" fill-rule="nonzero"></path><path fill="#ffffff" d="M 353.359375 187.5 C 353.359375 189.640625 353.292969 191.777344 353.160156 193.917969 C 353.027344 196.054688 352.828125 198.1875 352.5625 200.316406 C 352.292969 202.445312 351.960938 204.570312 351.5625 206.6875 C 351.164062 208.804688 350.703125 210.910156 350.171875 213.011719 C 349.644531 215.109375 349.046875 217.195312 348.386719 219.273438 C 347.730469 221.347656 347.003906 223.410156 346.21875 225.457031 C 345.429688 227.503906 344.578125 229.535156 343.664062 231.550781 C 342.75 233.566406 341.773438 235.5625 340.734375 237.539062 C 339.695312 239.515625 338.59375 241.472656 337.433594 243.40625 C 336.273438 245.339844 335.054688 247.253906 333.773438 249.140625 C 332.496094 251.027344 331.15625 252.886719 329.761719 254.722656 C 328.367188 256.558594 326.914062 258.367188 325.40625 260.144531 C 323.898438 261.925781 322.335938 263.675781 320.71875 265.394531 C 319.101562 267.113281 317.433594 268.796875 315.710938 270.453125 C 313.988281 272.105469 312.214844 273.726562 310.394531 275.3125 C 308.570312 276.898438 306.699219 278.449219 304.78125 279.960938 C 302.859375 281.472656 300.894531 282.949219 298.882812 284.386719 C 296.871094 285.824219 294.816406 287.222656 292.71875 288.578125 C 290.621094 289.9375 288.484375 291.253906 286.300781 292.527344 C 284.121094 293.800781 281.902344 295.035156 279.644531 296.222656 C 277.390625 297.410156 275.097656 298.554688 272.769531 299.65625 C 270.441406 300.757812 268.078125 301.8125 265.683594 302.820312 C 263.292969 303.828125 260.867188 304.789062 258.414062 305.707031 C 255.960938 306.621094 253.480469 307.488281 250.972656 308.304688 C 248.464844 309.125 245.933594 309.894531 243.375 310.617188 C 240.820312 311.335938 238.242188 312.007812 235.644531 312.628906 C 233.050781 313.25 230.433594 313.820312 227.800781 314.339844 C 225.167969 314.859375 222.519531 315.328125 219.859375 315.746094 C 217.195312 316.164062 214.523438 316.53125 211.835938 316.84375 C 209.152344 317.160156 206.457031 317.421875 203.757812 317.628906 C 201.054688 317.839844 198.347656 317.996094 195.636719 318.101562 C 192.925781 318.207031 190.214844 318.257812 187.5 318.257812 C 184.785156 318.257812 182.074219 318.207031 179.363281 318.101562 C 176.652344 317.996094 173.945312 317.839844 171.242188 317.628906 C 168.542969 317.421875 165.847656 317.160156 163.164062 316.84375 C 160.476562 316.53125 157.804688 316.164062 155.140625 315.746094 C 152.480469 315.328125 149.832031 314.859375 147.199219 314.339844 C 144.566406 313.820312 141.949219 313.25 139.355469 312.628906 C 136.757812 312.007812 134.179688 311.335938 131.625 310.617188 C 129.066406 309.894531 126.535156 309.125 124.027344 308.304688 C 121.519531 307.488281 119.039062 306.621094 116.585938 305.707031 C 114.132812 304.789062 111.707031 303.828125 109.316406 302.820312 C 106.921875 301.8125 104.558594 300.757812 102.230469 299.65625 C 99.902344 298.554688 97.609375 297.410156 95.355469 296.222656 C 93.097656 295.035156 90.878906 293.800781 88.699219 292.527344 C 86.515625 291.253906 84.378906 289.9375 82.28125 288.578125 C 80.183594 287.222656 78.128906 285.824219 76.117188 284.386719 C 74.105469 282.949219 72.140625 281.472656 70.21875 279.960938 C 68.300781 278.449219 66.429688 276.898438 64.605469 275.3125 C 62.785156 273.726562 61.011719 272.105469 59.289062 270.453125 C 57.566406 268.796875 55.898438 267.113281 54.28125 265.394531 C 52.664062 263.675781 51.101562 261.925781 49.59375 260.144531 C 48.085938 258.367188 46.632812 256.558594 45.238281 254.722656 C 43.84375 252.886719 42.503906 251.027344 41.226562 249.140625 C 39.945312 247.253906 38.726562 245.339844 37.566406 243.40625 C 36.40625 241.472656 35.304688 239.515625 34.265625 237.539062 C 33.226562 235.5625 32.25 233.566406 31.335938 231.550781 C 30.421875 229.535156 29.570312 227.503906 28.78125 225.457031 C 27.996094 223.410156 27.269531 221.347656 26.613281 219.273438 C 25.953125 217.195312 25.355469 215.109375 24.828125 213.011719 C 24.296875 210.910156 23.835938 208.804688 23.4375 206.6875 C 23.039062 204.570312 22.707031 202.445312 22.4375 200.316406 C 22.171875 198.1875 21.972656 196.054688 21.839844 193.917969 C 21.707031 191.777344 21.640625 189.640625 21.640625 187.5 C 21.640625 185.359375 21.707031 183.222656 21.839844 181.082031 C 21.972656 178.945312 22.171875 176.8125 22.4375 174.683594 C 22.707031 172.554688 23.039062 170.429688 23.4375 168.3125 C 23.835938 166.195312 24.296875 164.089844 24.828125 161.988281 C 25.355469 159.890625 25.953125 157.804688 26.613281 155.726562 C 27.269531 153.652344 27.996094 151.589844 28.78125 149.542969 C 29.570312 147.496094 30.421875 145.464844 31.335938 143.449219 C 32.25 141.433594 33.226562 139.4375 34.265625 137.460938 C 35.304688 135.484375 36.40625 133.527344 37.566406 131.59375 C 38.726562 129.660156 39.945312 127.746094 41.226562 125.859375 C 42.503906 123.972656 43.84375 122.113281 45.238281 120.277344 C 46.632812 118.441406 48.085938 116.632812 49.59375 114.855469 C 51.101562 113.074219 52.664062 111.324219 54.28125 109.605469 C 55.898438 107.886719 57.566406 106.199219 59.289062 104.546875 C 61.011719 102.894531 62.785156 101.273438 64.605469 99.6875 C 66.429688 98.101562 68.300781 96.550781 70.21875 95.039062 C 72.140625 93.527344 74.105469 92.050781 76.117188 90.613281 C 78.128906 89.175781 80.183594 87.777344 82.28125 86.421875 C 84.378906 85.0625 86.515625 83.746094 88.699219 82.472656 C 90.878906 81.199219 93.097656 79.964844 95.355469 78.777344 C 97.609375 77.589844 99.902344 76.445312 102.230469 75.34375 C 104.558594 74.242188 106.921875 73.1875 109.316406 72.179688 C 111.707031 71.171875 114.132812 70.210938 116.585938 69.292969 C 119.039062 68.378906 121.519531 67.511719 124.027344 66.695312 C 126.535156 65.875 129.066406 65.105469 131.625 64.382812 C 134.179688 63.664062 136.757812 62.992188 139.355469 62.371094 C 141.949219 61.75 144.566406 61.179688 147.199219 60.660156 C 149.832031 60.140625 152.480469 59.671875 155.140625 59.253906 C 157.804688 58.835938 160.476562 58.46875 163.164062 58.15625 C 165.847656 57.839844 168.542969 57.578125 171.242188 57.371094 C 173.945312 57.160156 176.652344 57.003906 179.363281 56.898438 C 182.074219 56.792969 184.785156 56.742188 187.5 56.742188 C 190.214844 56.742188 192.925781 56.792969 195.636719 56.898438 C 198.347656 57.003906 201.054688 57.160156 203.757812 57.371094 C 206.457031 57.578125 209.152344 57.839844 211.835938 58.15625 C 214.523438 58.46875 217.195312 58.835938 219.859375 59.253906 C 222.519531 59.671875 225.167969 60.140625 227.800781 60.660156 C 230.433594 61.179688 233.050781 61.75 235.644531 62.371094 C 238.242188 62.992188 240.820312 63.664062 243.375 64.382812 C 245.933594 65.105469 248.464844 65.875 250.972656 66.695312 C 253.480469 67.511719 255.960938 68.378906 258.414062 69.292969 C 260.867188 70.210938 263.292969 71.171875 265.683594 72.179688 C 268.078125 73.1875 270.441406 74.242188 272.769531 75.34375 C 275.097656 76.445312 277.390625 77.589844 279.644531 78.777344 C 281.902344 79.964844 284.121094 81.199219 286.300781 82.472656 C 288.484375 83.746094 290.621094 85.0625 292.71875 86.421875 C 294.816406 87.777344 296.871094 89.175781 298.882812 90.613281 C 300.894531 92.050781 302.859375 93.527344 304.78125 95.039062 C 306.699219 96.550781 308.570312 98.101562 310.394531 99.6875 C 312.214844 101.273438 313.988281 102.894531 315.710938 104.546875 C 317.433594 106.199219 319.101562 107.886719 320.71875 109.605469 C 322.335938 111.324219 323.898438 113.074219 325.40625 114.855469 C 326.914062 116.632812 328.367188 118.441406 329.761719 120.277344 C 331.15625 122.113281 332.496094 123.972656 333.773438 125.859375 C 335.054688 127.746094 336.273438 129.660156 337.433594 131.59375 C 338.59375 133.527344 339.695312 135.484375 340.734375 137.460938 C 341.773438 139.4375 342.75 141.433594 343.664062 143.449219 C 344.578125 145.464844 345.429688 147.496094 346.21875 149.542969 C 347.003906 151.589844 347.730469 153.652344 348.386719 155.726562 C 349.046875 157.804688 349.644531 159.890625 350.171875 161.988281 C 350.703125 164.089844 351.164062 166.195312 351.5625 168.3125 C 351.960938 170.429688 352.292969 172.554688 352.5625 174.683594 C 352.828125 176.8125 353.027344 178.945312 353.160156 181.082031 C 353.292969 183.222656 353.359375 185.359375 353.359375 187.5 Z M 353.359375 187.5 " fill-opacity="1" fill-rule="nonzero"></path><path fill="#184250" d="M 258.96875 187.5 C 258.96875 188.667969 258.941406 189.839844 258.882812 191.007812 C 258.824219 192.175781 258.738281 193.339844 258.625 194.503906 C 258.511719 195.667969 258.367188 196.828125 258.195312 197.988281 C 258.023438 199.144531 257.824219 200.296875 257.59375 201.441406 C 257.367188 202.589844 257.109375 203.730469 256.828125 204.867188 C 256.542969 206 256.230469 207.128906 255.890625 208.246094 C 255.550781 209.367188 255.183594 210.476562 254.792969 211.578125 C 254.398438 212.679688 253.976562 213.769531 253.527344 214.851562 C 253.082031 215.929688 252.605469 217 252.105469 218.058594 C 251.605469 219.113281 251.082031 220.160156 250.53125 221.191406 C 249.980469 222.222656 249.402344 223.238281 248.800781 224.242188 C 248.199219 225.246094 247.574219 226.234375 246.925781 227.207031 C 246.273438 228.179688 245.601562 229.132812 244.902344 230.074219 C 244.207031 231.011719 243.488281 231.933594 242.746094 232.839844 C 242.003906 233.742188 241.242188 234.628906 240.453125 235.496094 C 239.667969 236.363281 238.863281 237.210938 238.035156 238.035156 C 237.210938 238.863281 236.363281 239.667969 235.496094 240.453125 C 234.628906 241.242188 233.742188 242.003906 232.839844 242.746094 C 231.933594 243.488281 231.011719 244.207031 230.074219 244.902344 C 229.132812 245.601562 228.179688 246.273438 227.207031 246.925781 C 226.234375 247.574219 225.246094 248.199219 224.242188 248.800781 C 223.238281 249.402344 222.222656 249.980469 221.191406 250.53125 C 220.160156 251.082031 219.113281 251.605469 218.058594 252.105469 C 217 252.605469 215.929688 253.082031 214.851562 253.527344 C 213.769531 253.976562 212.679688 254.398438 211.578125 254.792969 C 210.476562 255.183594 209.367188 255.550781 208.246094 255.890625 C 207.128906 256.230469 206 256.542969 204.867188 256.828125 C 203.730469 257.109375 202.589844 257.367188 201.441406 257.59375 C 200.296875 257.824219 199.144531 258.023438 197.988281 258.195312 C 196.828125 258.367188 195.667969 258.511719 194.503906 258.625 C 193.339844 258.738281 192.175781 258.824219 191.007812 258.882812 C 189.839844 258.941406 188.667969 258.96875 187.5 258.96875 C 186.332031 258.96875 185.160156 258.941406 183.992188 258.882812 C 182.824219 258.824219 181.660156 258.738281 180.496094 258.625 C 179.332031 258.511719 178.171875 258.367188 177.011719 258.195312 C 175.855469 258.023438 174.703125 257.824219 173.558594 257.59375 C 172.410156 257.367188 171.269531 257.109375 170.132812 256.828125 C 169 256.542969 167.871094 256.230469 166.753906 255.890625 C 165.632812 255.550781 164.523438 255.183594 163.421875 254.792969 C 162.320312 254.398438 161.230469 253.976562 160.148438 253.527344 C 159.070312 253.082031 158 252.605469 156.941406 252.105469 C 155.886719 251.605469 154.839844 251.082031 153.808594 250.53125 C 152.777344 249.980469 151.761719 249.402344 150.757812 248.800781 C 149.753906 248.199219 148.765625 247.574219 147.792969 246.925781 C 146.820312 246.273438 145.867188 245.601562 144.925781 244.902344 C 143.988281 244.207031 143.066406 243.488281 142.160156 242.746094 C 141.257812 242.003906 140.371094 241.242188 139.503906 240.453125 C 138.636719 239.667969 137.789062 238.863281 136.964844 238.035156 C 136.136719 237.210938 135.332031 236.363281 134.546875 235.496094 C 133.757812 234.628906 132.996094 233.742188 132.253906 232.839844 C 131.511719 231.933594 130.792969 231.011719 130.09375 230.074219 C 129.398438 229.132812 128.726562 228.179688 128.074219 227.207031 C 127.425781 226.234375 126.800781 225.246094 126.199219 224.242188 C 125.597656 223.238281 125.019531 222.222656 124.46875 221.191406 C 123.917969 220.160156 123.394531 219.113281 122.894531 218.058594 C 122.394531 217 121.917969 215.929688 121.472656 214.851562 C 121.023438 213.769531 120.601562 212.679688 120.207031 211.578125 C 119.816406 210.476562 119.449219 209.367188 119.109375 208.246094 C 118.769531 207.128906 118.457031 206 118.171875 204.867188 C 117.890625 203.730469 117.632812 202.589844 117.40625 201.441406 C 117.175781 200.296875 116.976562 199.144531 116.804688 197.988281 C 116.632812 196.828125 116.488281 195.667969 116.375 194.503906 C 116.261719 193.339844 116.175781 192.175781 116.117188 191.007812 C 116.058594 189.839844 116.03125 188.667969 116.03125 187.5 C 116.03125 186.332031 116.058594 185.160156 116.117188 183.992188 C 116.175781 182.824219 116.261719 181.660156 116.375 180.496094 C 116.488281 179.332031 116.632812 178.171875 116.804688 177.011719 C 116.976562 175.855469 117.175781 174.703125 117.40625 173.558594 C 117.632812 172.410156 117.890625 171.269531 118.171875 170.132812 C 118.457031 169 118.769531 167.871094 119.109375 166.753906 C 119.449219 165.632812 119.816406 164.523438 120.207031 163.421875 C 120.601562 162.320312 121.023438 161.230469 121.472656 160.148438 C 121.917969 159.070312 122.394531 158 122.894531 156.941406 C 123.394531 155.886719 123.917969 154.839844 124.46875 153.808594 C 125.019531 152.777344 125.597656 151.761719 126.199219 150.757812 C 126.800781 149.753906 127.425781 148.765625 128.074219 147.792969 C 128.726562 146.820312 129.398438 145.867188 130.09375 144.925781 C 130.792969 143.988281 131.511719 143.066406 132.253906 142.160156 C 132.996094 141.257812 133.757812 140.371094 134.546875 139.503906 C 135.332031 138.636719 136.136719 137.789062 136.964844 136.964844 C 137.789062 136.136719 138.636719 135.332031 139.503906 134.546875 C 140.371094 133.757812 141.257812 132.996094 142.160156 132.253906 C 143.066406 131.511719 143.988281 130.792969 144.925781 130.09375 C 145.867188 129.398438 146.820312 128.726562 147.792969 128.074219 C 148.765625 127.425781 149.753906 126.800781 150.757812 126.199219 C 151.761719 125.597656 152.777344 125.019531 153.808594 124.46875 C 154.839844 123.917969 155.886719 123.394531 156.941406 122.894531 C 158 122.394531 159.070312 121.917969 160.148438 121.472656 C 161.230469 121.023438 162.320312 120.601562 163.421875 120.207031 C 164.523438 119.816406 165.632812 119.449219 166.753906 119.109375 C 167.871094 118.769531 169 118.457031 170.132812 118.171875 C 171.269531 117.890625 172.410156 117.632812 173.558594 117.40625 C 174.703125 117.175781 175.855469 116.976562 177.011719 116.804688 C 178.171875 116.632812 179.332031 116.488281 180.496094 116.375 C 181.660156 116.261719 182.824219 116.175781 183.992188 116.117188 C 185.160156 116.058594 186.332031 116.03125 187.5 116.03125 C 188.667969 116.03125 189.839844 116.058594 191.007812 116.117188 C 192.175781 116.175781 193.339844 116.261719 194.503906 116.375 C 195.667969 116.488281 196.828125 116.632812 197.988281 116.804688 C 199.144531 116.976562 200.296875 117.175781 201.441406 117.40625 C 202.589844 117.632812 203.730469 117.890625 204.867188 118.171875 C 206 118.457031 207.128906 118.769531 208.246094 119.109375 C 209.367188 119.449219 210.476562 119.816406 211.578125 120.207031 C 212.679688 120.601562 213.769531 121.023438 214.851562 121.472656 C 215.929688 121.917969 217 122.394531 218.058594 122.894531 C 219.113281 123.394531 220.160156 123.917969 221.191406 124.46875 C 222.222656 125.019531 223.238281 125.597656 224.242188 126.199219 C 225.246094 126.800781 226.234375 127.425781 227.207031 128.074219 C 228.179688 128.726562 229.132812 129.398438 230.074219 130.09375 C 231.011719 130.792969 231.933594 131.511719 232.839844 132.253906 C 233.742188 132.996094 234.628906 133.757812 235.496094 134.546875 C 236.363281 135.332031 237.210938 136.136719 238.035156 136.964844 C 238.863281 137.789062 239.667969 138.636719 240.453125 139.503906 C 241.242188 140.371094 242.003906 141.257812 242.746094 142.160156 C 243.488281 143.066406 244.207031 143.988281 244.902344 144.925781 C 245.601562 145.867188 246.273438 146.820312 246.925781 147.792969 C 247.574219 148.765625 248.199219 149.753906 248.800781 150.757812 C 249.402344 151.761719 249.980469 152.777344 250.53125 153.808594 C 251.082031 154.839844 251.605469 155.886719 252.105469 156.941406 C 252.605469 158 253.082031 159.070312 253.527344 160.148438 C 253.976562 161.230469 254.398438 162.320312 254.792969 163.421875 C 255.183594 164.523438 255.550781 165.632812 255.890625 166.753906 C 256.230469 167.871094 256.542969 169 256.828125 170.132812 C 257.109375 171.269531 257.367188 172.410156 257.59375 173.558594 C 257.824219 174.703125 258.023438 175.855469 258.195312 177.011719 C 258.367188 178.171875 258.511719 179.332031 258.625 180.496094 C 258.738281 181.660156 258.824219 182.824219 258.882812 183.992188 C 258.941406 185.160156 258.96875 186.332031 258.96875 187.5 Z M 258.96875 187.5 " fill-opacity="1" fill-rule="nonzero"></path></svg>